<?xml version="1.0" encoding="utf-8"?>
<svg xmlns="http://www.w3.org/2000/svg" style="margin: auto; display: block; shape-rendering: auto; background: none;" width="281" height="250" preserveAspectRatio="xMidYMid">
<style type="text/css">
  text {
    text-anchor: middle; font-size: 63px; opacity: 0;
  }
</style>
<g style="transform-origin: 140.5px 125px; transform: scale(0.7875);">
<g transform="translate(140.5,125)">
  <g transform="translate(0,0)"><g class="path" style="transform: scale(1); transform-origin: -142.76px -5.45184px; animation: 2.08333s linear -1.2375s infinite normal forwards running beat-a2622278-74b6-410e-9bb0-28f432e44d20;"><path d="M20.56-33.52L20.56-33.52L20.56-33.52Q20.88-33.52 21.76-32.88L21.76-32.88L21.76-32.88Q22.64-32.24 23.60-32.24L23.60-32.24L23.68-32.24L23.68-32.24Q26.40-32.24 28-34.40L28-34.40L28-34.40Q29.60-36.56 29.76-38.72L29.76-38.72L30-40.88L30-40.88Q30-43.92 29.08-46.12L29.08-46.12L29.08-46.12Q28.16-48.32 26.96-49.40L26.96-49.40L26.96-49.40Q25.76-50.48 24.16-51.04L24.16-51.04L24.16-51.04Q22.16-51.84 19.96-51.84L19.96-51.84L19.96-51.84Q17.76-51.84 16.40-51.40L16.40-51.40L16.40-51.40Q15.04-50.96 14.88-50.56L14.88-50.56L14.80-50.08L14.80-50.08Q14.08-39.28 14.08-30.76L14.08-30.76L14.08-30.76Q14.08-22.24 14.36-16.08L14.36-16.08L14.36-16.08Q14.64-9.92 14.92-6.60L14.92-6.60L14.92-6.60Q15.20-3.28 15.20-2.96L15.20-2.96L15.20-2.96Q15.20-0.96 11.68 0.24L11.68 0.24L11.68 0.24Q8.16 1.44 4.72 1.44L4.72 1.44L4.72 1.44Q3.12 1.44 3.12 0.64L3.12 0.64L3.12 0.64Q3.12 0.40 3.36-0.48L3.36-0.48L3.36-0.48Q4.88-4 4.88-33.20L4.88-33.20L4.88-33.20Q4.88-50.40 2.56-52.88L2.56-52.88L2.56-52.88Q2.08-53.36 2.08-53.88L2.08-53.88L2.08-53.88Q2.08-54.40 3.24-55.04L3.24-55.04L3.24-55.04Q4.40-55.68 9.76-56.52L9.76-56.52L9.76-56.52Q15.12-57.36 21.12-57.36L21.12-57.36L21.12-57.36Q30.56-57.36 35.32-52.24L35.32-52.24L35.32-52.24Q40.08-47.12 40.08-40.04L40.08-40.04L40.08-40.04Q40.08-32.96 36.20-27.76L36.20-27.76L36.20-27.76Q32.32-22.56 26.08-22.56L26.08-22.56L26.08-22.56Q24.08-22.56 22.08-23.28L22.08-23.28L22.08-23.28Q18.08-24.72 18.08-29.28L18.08-29.28L18.08-29.28Q18.08-30.24 18.72-31.88L18.72-31.88L18.72-31.88Q19.36-33.52 20.56-33.52" fill="#f72585" stroke="none" stroke-width="none" transform="translate(-163.84002685546875,22.50815969848633)" style="fill: rgb(247, 37, 133);"></path></g><g class="path" style="transform: scale(1); transform-origin: -111.72px 5.10816px; animation: 2.08333s linear -1.1s infinite normal forwards running beat-a2622278-74b6-410e-9bb0-28f432e44d20;"><path d="M47.20-20.32L47.20-20.32L47.28-18.32L47.28-18.32Q47.28-17.84 47.92-17.84L47.92-17.84L47.92-17.84Q50.48-18.08 52.40-19.16L52.40-19.16L52.40-19.16Q54.32-20.24 55.28-21.60L55.28-21.60L55.28-21.60Q57.20-24.56 57.36-26.72L57.36-26.72L57.44-27.68L57.44-27.68Q57.44-32 54-32L54-32L54-32Q51.44-32 49.84-29.76L49.84-29.76L49.84-29.76Q47.20-26.24 47.20-20.32zM64.64-9.68L64.64-9.68L64.64-9.68Q64.64-6.64 63.40-4.36L63.40-4.36L63.40-4.36Q62.16-2.08 60.60-1L60.60-1L60.60-1Q59.04 0.08 56.96 0.72L56.96 0.72L56.96 0.72Q54.32 1.52 51.92 1.52L51.92 1.52L51.92 1.52Q45.20 1.52 42-3.52L42-3.52L42-3.52Q38.80-8.56 38.80-16.36L38.80-16.36L38.80-16.36Q38.80-24.16 42.76-30.24L42.76-30.24L42.76-30.24Q46.72-36.32 54.64-36.32L54.64-36.32L54.64-36.32Q61.84-36.32 64.40-31.28L64.40-31.28L64.40-31.28Q65.44-29.36 65.44-27.64L65.44-27.64L65.44-27.64Q65.44-25.92 65.28-24.92L65.28-24.92L65.28-24.92Q65.12-23.92 64.16-21.92L64.16-21.92L64.16-21.92Q63.20-19.92 61.60-18.32L61.60-18.32L61.60-18.32Q60-16.72 56.56-15.28L56.56-15.28L56.56-15.28Q53.12-13.84 48.48-13.36L48.48-13.36L48.48-13.36Q47.84-13.36 47.84-12.80L47.84-12.80L47.84-12.80Q47.84-12.08 48.36-10.68L48.36-10.68L48.36-10.68Q48.88-9.28 49.52-8.32L49.52-8.32L49.52-8.32Q51.28-6.08 54.72-6.08L54.72-6.08L54.72-6.08Q58.16-6.08 60.56-8.32L60.56-8.32L60.56-8.32Q61.84-9.52 62.64-11.28L62.64-11.28L62.64-11.28Q62.96-11.92 63.48-11.92L63.48-11.92L63.48-11.92Q64-11.92 64.32-11.04L64.32-11.04L64.32-11.04Q64.64-10.16 64.64-9.68" fill="#f72585" stroke="none" stroke-width="none" transform="translate(-163.84002685546875,22.50815969848633)" style="fill: rgb(181, 23, 158);"></path></g><g class="path" style="transform: scale(1); transform-origin: -80.32px -4.81184px; animation: 2.08333s linear -0.9625s infinite normal forwards running beat-a2622278-74b6-410e-9bb0-28f432e44d20;"><path d="M85.04-35.92L85.04-35.92L85.04-35.92Q86.48-35.92 87.64-35.56L87.64-35.56L87.64-35.56Q88.80-35.20 88.88-35.20L88.88-35.20L89.36-35.60L89.04-44.32L89.04-44.32Q88.88-46.56 88.08-48.16L88.08-48.16L88.08-48.16Q87.28-49.76 86.64-50.24L86.64-50.24L85.92-50.64L85.92-50.64Q85.44-50.96 85.44-51.36L85.44-51.36L85.44-51.36Q85.44-52.56 89.16-54.16L89.16-54.16L89.16-54.16Q92.88-55.76 94.96-55.76L94.96-55.76L94.96-55.76Q97.04-55.76 97.20-54.88L97.20-54.88L97.20-54.88Q97.60-52.16 97.60-44.52L97.60-44.52L97.60-44.52Q97.60-36.88 97.24-29.52L97.24-29.52L97.24-29.52Q96.88-22.16 96.88-12.84L96.88-12.84L96.88-12.84Q96.88-3.52 98.08-1.12L98.08-1.12L98.08-1.12Q98.40-0.56 98.40-0.08L98.40-0.08L98.40-0.08Q98.40 1.12 94.96 1.12L94.96 1.12L94.96 1.12Q88.40 1.12 88.40-2L88.40-2L88.40-2Q88.24-3.28 88.24-5.96L88.24-5.96L88.24-5.96Q88.24-8.64 88.76-15.96L88.76-15.96L88.76-15.96Q89.28-23.28 89.28-27.24L89.28-27.24L89.28-27.24Q89.28-31.20 85.32-31.20L85.32-31.20L85.32-31.20Q81.36-31.20 79.28-26.56L79.28-26.56L79.28-26.56Q77.20-21.92 77.20-17.28L77.20-17.28L77.20-17.28Q77.20-7.44 82.16-7.44L82.16-7.44L82.16-7.44Q82.88-7.44 83.56-7.72L83.56-7.72L83.56-7.72Q84.24-8 84.40-8L84.40-8L84.40-8Q85.04-8 85.40-7.20L85.40-7.20L85.40-7.20Q85.76-6.40 85.76-5.60L85.76-5.60L85.76-5.60Q85.76-2.88 83.60-1L83.60-1L83.60-1Q81.44 0.88 78.32 0.88L78.32 0.88L78.32 0.88Q73.52 0.88 71.08-3.32L71.08-3.32L71.08-3.32Q68.64-7.52 68.64-13.76L68.64-13.76L68.64-13.76Q68.64-21.68 72.40-28.48L72.40-28.48L72.40-28.48Q74.32-31.84 77.60-33.88L77.60-33.88L77.60-33.88Q80.88-35.92 85.04-35.92" fill="#f72585" stroke="none" stroke-width="none" transform="translate(-163.84002685546875,22.50815969848633)" style="fill: rgb(114, 9, 183);"></path></g><g class="path" style="transform: scale(1); transform-origin: -49.44px 4.94816px; animation: 2.08333s linear -0.825s infinite normal forwards running beat-a2622278-74b6-410e-9bb0-28f432e44d20;"><path d="M126.80-27.52L126.40-21.44L126.72-18.64L126.72-18.64Q126.72-17.12 123.84-17.12L123.84-17.12L123.84-17.12Q118-17.12 118-21.52L118-21.52L118-21.52Q118-22.56 118.56-24.40L118.56-24.40L118.56-24.40Q119.12-26.24 119.12-27.60L119.12-27.60L119.12-27.60Q119.12-28.96 118.32-29.96L118.32-29.96L118.32-29.96Q117.52-30.96 116-30.96L116-30.96L116-30.96Q114.48-30.96 113.40-29.88L113.40-29.88L113.40-29.88Q112.32-28.80 112.08-27.68L112.08-27.68L111.76-26.56L111.76-26.56Q111.28-24.08 111.28-18.28L111.28-18.28L111.28-18.28Q111.28-12.48 111.44-9.16L111.44-9.16L111.44-9.16Q111.60-5.84 111.76-4.60L111.76-4.60L111.76-4.60Q111.92-3.36 111.92-3.12L111.92-3.12L111.92-3.12Q111.92-1.12 109.44 0.12L109.44 0.12L109.44 0.12Q106.96 1.36 104.48 1.36L104.48 1.36L104.48 1.36Q102 1.36 102 0.32L102 0.32L102.40-2.16L102.40-2.16Q103.52-9.12 103.52-20.32L103.52-20.32L103.52-20.32Q103.52-31.52 102.72-35.52L102.72-35.52L102.72-35.52Q102.72-36.48 104.40-36.48L104.40-36.48L104.40-36.48Q108.72-36.48 110.16-33.52L110.16-33.52L110.16-33.52Q110.24-33.20 110.44-33.20L110.44-33.20L110.44-33.20Q110.64-33.20 111.52-33.92L111.52-33.92L111.52-33.92Q114.16-36.08 117.76-36.08L117.76-36.08L117.76-36.08Q120-36.08 122.24-35.20L122.24-35.20L122.24-35.20Q126.80-33.36 126.80-27.52L126.80-27.52" fill="#f72585" stroke="none" stroke-width="none" transform="translate(-163.84002685546875,22.50815969848633)" style="fill: rgb(86, 11, 173);"></path></g><g class="path" style="transform: scale(1); transform-origin: -20.84px 5.22816px; animation: 2.08333s linear -0.6875s infinite normal forwards running beat-a2622278-74b6-410e-9bb0-28f432e44d20;"><path d="M136.24-30.16L136.24-30.16L136.24-30.16Q134.16-30.08 133.24-30.04L133.24-30.04L133.24-30.04Q132.32-30 132.32-30.48L132.32-30.48L132.32-30.48Q132.32-30.96 132.80-31.44L132.80-31.44L132.80-31.44Q137.92-36.16 150.08-36.16L150.08-36.16L150.08-36.16Q154.24-36.16 156.64-35.44L156.64-35.44L157.44-35.20L157.44-35.20Q158.40-34.80 158.40-34.32L158.40-34.32L158.40-34.32Q158.40-33.92 157.84-33.68L157.84-33.68L157.84-33.68Q155.68-33.04 153.68-31.64L153.68-31.64L153.68-31.64Q151.68-30.24 151.68-29.68L151.68-29.68L152.16-29.12L152.16-29.12Q154.72-27.68 156.12-24.56L156.12-24.56L156.12-24.56Q157.52-21.44 157.68-19.04L157.68-19.04L157.84-16.56L157.84-16.56Q157.84-8.64 153.44-3.52L153.44-3.52L153.44-3.52Q149.04 1.60 141.44 1.60L141.44 1.60L141.44 1.60Q137.60 1.60 134.80 0.24L134.80 0.24L134.80 0.24Q132-1.12 130.68-2.84L130.68-2.84L130.68-2.84Q129.36-4.56 128.56-6.72L128.56-6.72L128.56-6.72Q127.60-9.68 127.60-12.84L127.60-12.84L127.60-12.84Q127.60-16 128.68-19.20L128.68-19.20L128.68-19.20Q129.76-22.40 131.16-23.92L131.16-23.92L131.16-23.92Q132.56-25.44 134.32-26.40L134.32-26.40L134.32-26.40Q136.56-27.60 137.92-27.60L137.92-27.60L137.92-27.60Q139.28-27.60 139.28-27.04L139.28-27.04L138.80-26.24L138.80-26.24Q137.04-24.16 136.28-20.80L136.28-20.80L136.28-20.80Q135.52-17.44 135.52-14.84L135.52-14.84L135.52-14.84Q135.52-12.24 136.16-9.68L136.16-9.68L136.16-9.68Q136.80-7.12 137.60-5.88L137.60-5.88L137.60-5.88Q138.40-4.64 139.44-4L139.44-4L139.44-4Q140.96-3.04 142.64-3.04L142.64-3.04L142.64-3.04Q144.32-3.04 145.92-4.36L145.92-4.36L145.92-4.36Q147.52-5.68 148.24-7.84L148.24-7.84L148.24-7.84Q149.68-11.84 149.68-16.08L149.68-16.08L149.68-16.08Q149.68-22.80 146.28-26.48L146.28-26.48L146.28-26.48Q142.88-30.16 136.24-30.16" fill="#f72585" stroke="none" stroke-width="none" transform="translate(-163.84002685546875,22.50815969848633)" style="fill: rgb(72, 12, 168);"></path></g><g class="path" style="transform: scale(1); transform-origin: 28.4px -6.17184px; animation: 2.08333s linear -0.55s infinite normal forwards running beat-a2622278-74b6-410e-9bb0-28f432e44d20;"><path d="M198.64-0.08L198.64-0.08L194.08-0.16L194.08-0.16Q193.12-0.16 192.16-0.16L192.16-0.16L177.60 0.56L177.60 0.56Q176.40 0.56 176.40-0.24L176.40-0.24L176.40-0.24Q176.40-0.48 176.64-1.36L176.64-1.36L176.64-1.36Q177.44-3.20 177.80-13.04L177.80-13.04L177.80-13.04Q178.16-22.88 178.16-31L178.16-31L178.16-31Q178.16-39.12 177.84-44.16L177.84-44.16L177.84-44.16Q177.36-51.76 176.24-53.28L176.24-53.28L176.24-53.28Q175.36-54.40 175.36-54.72L175.36-54.72L175.36-54.72Q175.36-56 179.68-56.96L179.68-56.96L179.68-56.96Q184-57.92 185.88-57.92L185.88-57.92L185.88-57.92Q187.76-57.92 188.24-57.72L188.24-57.72L188.24-57.72Q188.72-57.52 188.72-56.88L188.72-56.88L188.72-56.88Q188.72-56.24 188.40-52.80L188.40-52.80L188.40-52.80Q187.60-42.64 187.60-29.16L187.60-29.16L187.60-29.16Q187.60-15.68 188.24-7.60L188.24-7.60L188.24-7.60Q188.24-6.72 189.76-6.08L189.76-6.08L189.76-6.08Q191.28-5.44 193.52-5.44L193.52-5.44L193.52-5.44Q201.36-5.44 201.36-17.52L201.36-17.52L201.36-17.52Q201.36-20.88 201-21.68L201-21.68L201-21.68Q200.64-22.48 200.64-22.72L200.64-22.72L200.64-22.72Q200.64-23.52 201.76-23.52L201.76-23.52L201.76-23.52Q202.64-23.52 204.12-22.64L204.12-22.64L204.12-22.64Q205.60-21.76 206.56-20.44L206.56-20.44L206.56-20.44Q207.52-19.12 208.32-16.28L208.32-16.28L208.32-16.28Q209.12-13.44 209.12-9.60L209.12-9.60L209.12-9.60Q209.12-0.08 206.80-0.08L206.80-0.08L206.80-0.08Q202.72-0.08 198.64-0.08" fill="#f72585" stroke="none" stroke-width="none" transform="translate(-163.84002685546875,22.50815969848633)" style="fill: rgb(58, 12, 163);"></path></g><g class="path" style="transform: scale(1); transform-origin: 62.4px 4.94816px; animation: 2.08333s linear -0.4125s infinite normal forwards running beat-a2622278-74b6-410e-9bb0-28f432e44d20;"><path d="M240.40-35.60L240.40-35.60L240.40-35.60Q238.96-26.96 238.96-13.60L238.96-13.60L238.96-13.60Q238.96-3.76 239.76-0.64L239.76-0.64L240.08 0.40L240.08 0.40Q240.08 1.44 238.32 1.44L238.32 1.44L238.32 1.44Q232.16 1.44 231.28-2L231.28-2L231.28-2Q231.20-2.40 230.92-2.40L230.92-2.40L230.92-2.40Q230.64-2.40 230.40-2.08L230.40-2.08L230.40-2.08Q227.92 1.20 222.72 1.20L222.72 1.20L222.72 1.20Q219.84 1.20 216.72-0.24L216.72-0.24L216.72-0.24Q214.80-1.12 213.60-3.32L213.60-3.32L213.60-3.32Q212.40-5.52 212.40-8.72L212.40-8.72L213.60-26.24L213.60-26.24Q213.60-31.76 212.48-34.08L212.48-34.08L212.48-34.08Q212.08-34.96 212.08-35.20L212.08-35.20L212.08-35.20Q212.08-35.68 212.48-35.84L212.48-35.84L212.48-35.84Q213.76-36.24 215.76-36.24L215.76-36.24L215.76-36.24Q223.52-36.24 223.52-29.84L223.52-29.84L223.52-29.84Q223.52-27.84 221.88-20.72L221.88-20.72L221.88-20.72Q220.24-13.60 220.24-10.60L220.24-10.60L220.24-10.60Q220.24-7.60 221.56-6L221.56-6L221.56-6Q222.88-4.40 225.24-4.40L225.24-4.40L225.24-4.40Q227.60-4.40 228.96-6.08L228.96-6.08L228.96-6.08Q230.32-7.76 230.56-9.44L230.56-9.44L230.80-11.12L230.80-11.12Q231.12-13.92 231.12-20.96L231.12-20.96L231.12-20.96Q231.12-28 230.68-29.88L230.68-29.88L230.68-29.88Q230.24-31.76 230.24-32.24L230.24-32.24L230.24-32.24Q230.24-34.24 233.44-35.40L233.44-35.40L233.44-35.40Q236.64-36.56 239.20-36.56L239.20-36.56L239.20-36.56Q240.40-36.56 240.40-35.60" fill="#f72585" stroke="none" stroke-width="none" transform="translate(-163.84002685546875,22.50815969848633)" style="fill: rgb(63, 55, 201);"></path></g><g class="path" style="transform: scale(1); transform-origin: 92.6px 5.02816px; animation: 2.08333s linear -0.275s infinite normal forwards running beat-a2622278-74b6-410e-9bb0-28f432e44d20;"><path d="M269.60-9.20L269.60-9.20L269.60-9.20Q269.60-4.64 265.96-1.64L265.96-1.64L265.96-1.64Q262.32 1.36 257.28 1.36L257.28 1.36L257.28 1.36Q249.92 1.36 246.48-3.08L246.48-3.08L246.48-3.08Q243.04-7.52 243.04-15.12L243.04-15.12L243.04-15.12Q243.04-23.20 246.64-29.44L246.64-29.44L246.64-29.44Q248.40-32.64 251.68-34.48L251.68-34.48L251.68-34.48Q254.96-36.32 259.36-36.32L259.36-36.32L259.36-36.32Q266-36.32 268.72-31.84L268.72-31.84L268.72-31.84Q269.84-30 269.84-27.52L269.84-27.52L269.84-27.52Q269.84-23.68 266.64-21.76L266.64-21.76L266.64-21.76Q265.36-21.04 264.28-21.04L264.28-21.04L264.28-21.04Q263.20-21.04 262.52-21.16L262.52-21.16L262.52-21.16Q261.84-21.28 260.72-22.24L260.72-22.24L260.72-22.24Q259.60-23.20 259.60-24.88L259.60-24.88L259.60-24.88Q259.68-25.76 260.96-26.32L260.96-26.32L260.96-26.32Q262.16-27.04 262.16-28.88L262.16-28.88L262.16-28.88Q262.16-32 258.32-32L258.32-32L258.32-32Q257.36-32 256.04-31.16L256.04-31.16L256.04-31.16Q254.72-30.32 253.84-29L253.84-29L253.84-29Q252.96-27.68 252.20-24.84L252.20-24.84L252.20-24.84Q251.44-22 251.44-19.40L251.44-19.40L251.44-19.40Q251.44-16.80 251.64-15.48L251.64-15.48L251.64-15.48Q251.84-14.16 252.52-11.88L252.52-11.88L252.52-11.88Q253.20-9.60 255.08-8.16L255.08-8.16L255.08-8.16Q256.96-6.72 259.76-6.72L259.76-6.72L259.76-6.72Q263.12-6.72 265.68-9.52L265.68-9.52L265.68-9.52Q266.72-10.64 267.36-12.24L267.36-12.24L267.36-12.24Q267.68-12.88 268.16-12.88L268.16-12.88L268.16-12.88Q268.88-12.88 269.24-11.56L269.24-11.56L269.24-11.56Q269.60-10.24 269.60-9.20" fill="#f72585" stroke="none" stroke-width="none" transform="translate(-163.84002685546875,22.50815969848633)" style="fill: rgb(67, 97, 238);"></path></g><g class="path" style="transform: scale(1); transform-origin: 123.84px 4.94816px; animation: 2.08333s linear -0.1375s infinite normal forwards running beat-a2622278-74b6-410e-9bb0-28f432e44d20;"><path d="M300.56-24L300.56-24L300.40-13.76L300.40-13.76Q300.40-3.12 302.72-0.96L302.72-0.96L302.72-0.96Q303.04-0.64 303.04-0.24L303.04-0.24L303.04-0.24Q303.04 0.96 297.88 0.96L297.88 0.96L297.88 0.96Q292.72 0.96 292.40-2.08L292.40-2.08L292.40-2.08Q292.32-2.80 292.32-5.04L292.32-5.04L292.64-17.84L292.64-17.84Q292.64-18.40 292-18.40L292-18.40L292-18.40Q288.16-18.40 284.80-16.24L284.80-16.24L284.80-16.24Q281.44-14.08 281.44-10.72L281.44-10.72L281.44-10.72Q281.44-8.96 282.40-7.76L282.40-7.76L282.40-7.76Q283.36-6.56 284.76-6.56L284.76-6.56L284.76-6.56Q286.16-6.56 287.08-7.12L287.08-7.12L287.08-7.12Q288-7.68 288.16-7.76L288.16-7.76L288.16-7.76Q289.52-7.60 289.52-4.92L289.52-4.92L289.52-4.92Q289.52-2.24 287.04-0.60L287.04-0.60L287.04-0.60Q284.56 1.04 281.84 1.04L281.84 1.04L281.84 1.04Q279.12 1.04 277.16 0.08L277.16 0.08L277.16 0.08Q275.20-0.88 274.32-2.08L274.32-2.08L274.32-2.08Q273.44-3.28 272.88-4.80L272.88-4.80L272.88-4.80Q272.32-6.64 272.32-8L272.32-8L272.32-8Q272.32-13.60 275.84-16.96L275.84-16.96L275.84-16.96Q279.36-20.32 284.88-21.76L284.88-21.76L284.88-21.76Q292.16-23.20 292.48-24.40L292.48-24.40L292.48-24.40Q292.72-25.28 292.72-27.36L292.72-27.36L292.72-27.36Q292.72-31.60 288.40-31.60L288.40-31.60L288.40-31.60Q286.56-31.60 285.12-30.44L285.12-30.44L285.12-30.44Q283.68-29.28 283.68-27.52L283.68-27.52L284.16-25.60L284.16-25.60Q284-24.24 281.28-24L281.28-24L280.40-23.92L280.40-23.92Q278-23.92 276.60-25.12L276.60-25.12L276.60-25.12Q275.20-26.32 275.20-28.32L275.20-28.32L275.20-28.32Q275.20-29.60 276.04-31.16L276.04-31.16L276.04-31.16Q276.88-32.72 278.16-33.68L278.16-33.68L278.16-33.68Q279.44-34.64 282.12-35.40L282.12-35.40L282.12-35.40Q284.80-36.16 287.28-36.16L287.28-36.16L287.28-36.16Q289.76-36.16 291.12-36L291.12-36L291.12-36Q292.48-35.84 294.84-35.24L294.84-35.24L294.84-35.24Q297.20-34.64 298.76-32.96L298.76-32.96L298.76-32.96Q300.32-31.28 300.44-29.40L300.44-29.40L300.44-29.40Q300.56-27.52 300.56-24" fill="#f72585" stroke="none" stroke-width="none" transform="translate(-163.84002685546875,22.50815969848633)" style="fill: rgb(72, 149, 239);"></path></g><g class="path" style="transform: scale(1); transform-origin: 152.96px 5.22816px; animation: 2.08333s linear 0s infinite normal forwards running beat-a2622278-74b6-410e-9bb0-28f432e44d20;"><path d="M329.76-10.96L329.76-10.96L329.76-10.96Q329.76-7.52 328.44-4.96L328.44-4.96L328.44-4.96Q327.12-2.40 325.44-1.20L325.44-1.20L325.44-1.20Q323.76 0 321.44 0.72L321.44 0.72L321.44 0.72Q318.40 1.68 315.92 1.68L315.92 1.68L315.92 1.68Q310.72 1.68 307.28-0.36L307.28-0.36L307.28-0.36Q303.84-2.40 303.84-6.88L303.84-6.88L303.84-6.88Q303.84-9.52 305.28-11.20L305.28-11.20L305.28-11.20Q307.52-13.68 310.64-13.68L310.64-13.68L310.64-13.68Q311.60-13.68 311.60-12.80L311.60-12.80L311.60-12.80Q311.60-12.72 311.24-11.56L311.24-11.56L311.24-11.56Q310.88-10.40 310.88-8.64L310.88-8.64L310.88-8.64Q310.88-6.88 312.28-5.52L312.28-5.52L312.28-5.52Q313.68-4.16 315.68-4.16L315.68-4.16L315.68-4.16Q317.68-4.16 318.88-4.84L318.88-4.84L318.88-4.84Q320.08-5.52 320.56-6.56L320.56-6.56L320.56-6.56Q321.28-8 321.28-9.28L321.28-9.28L321.28-9.28Q321.28-11.60 318.96-13.28L318.96-13.28L318.96-13.28Q316.64-14.96 313.84-15.92L313.84-15.92L313.84-15.92Q311.04-16.88 308.72-19.12L308.72-19.12L308.72-19.12Q306.40-21.36 306.40-24.72L306.40-24.72L306.40-24.72Q306.40-30.48 310.04-33.36L310.04-33.36L310.04-33.36Q313.68-36.24 319.92-36.24L319.92-36.24L319.92-36.24Q322.64-36.24 325.64-35.48L325.64-35.48L325.64-35.48Q328.64-34.72 328.64-32.92L328.64-32.92L328.64-32.92Q328.64-31.12 328.04-29.60L328.04-29.60L328.04-29.60Q327.44-28.08 326.56-28.08L326.56-28.08L326.56-28.08Q326.08-28.08 325.92-28.44L325.92-28.44L325.92-28.44Q325.76-28.80 325.36-29.28L325.36-29.28L325.36-29.28Q324.96-29.76 323.44-30.52L323.44-30.52L323.44-30.52Q321.92-31.28 320.84-31.28L320.84-31.28L320.84-31.28Q319.76-31.28 319.40-31.24L319.40-31.24L319.40-31.24Q319.04-31.20 318.16-31L318.16-31L318.16-31Q317.28-30.80 316.56-30.40L316.56-30.40L316.56-30.40Q314.72-29.36 314.72-27.36L314.72-27.36L314.72-27.36Q314.72-26.08 315.28-25.48L315.28-25.48L315.28-25.48Q315.84-24.88 316.16-24.56L316.16-24.56L316.16-24.56Q316.48-24.24 317.28-23.80L317.28-23.80L317.28-23.80Q318.08-23.36 318.40-23.20L318.40-23.20L318.40-23.20Q318.72-23.04 319.84-22.52L319.84-22.52L319.84-22.52Q320.96-22 321.28-21.84L321.28-21.84L321.28-21.84Q329.76-17.84 329.76-10.96" fill="#f72585" stroke="none" stroke-width="none" transform="translate(-163.84002685546875,22.50815969848633)" style="fill: rgb(76, 201, 240);"></path></g></g>
</g>
</g>
<style id="beat-a2622278-74b6-410e-9bb0-28f432e44d20" data-anikit="">@keyframes beat-a2622278-74b6-410e-9bb0-28f432e44d20
{
  0% {
    animation-timing-function: cubic-bezier(0.1028,0.2484,0.1372,0.849);
    transform: scale(1);
  }
  34% {
    animation-timing-function: cubic-bezier(0.7116,0.2095,0.8159,0.6876);
    transform: scale(1.2);
  }
  68% {
    animation-timing-function: cubic-bezier(0.1475,0.2888,0.294,0.883);
    transform: scale(1.0268);
  }
  84% {
    animation-timing-function: cubic-bezier(0.8176,0.2193,0.867,0.6889);
    transform: scale(1.0932);
  }
  100% {
    transform: scale(1);
  }
}</style></svg>